<?xml version="1.0" encoding="UTF-8"?>
<svg id="Layer_1" xmlns="http://www.w3.org/2000/svg" viewBox="0 0 1764.78 893.98">
  <defs>
    <style>
      .cls-1 {
        fill: #fa0;
        stroke: #fff;
        stroke-miterlimit: 10;
        stroke-width: 8px;
      }

      .cls-2 {
        fill: #fff;
      }

      .cls-3 {
        fill: #784600;
      }

      .cls-4 {
        fill: #ffbe00;
      }
    </style>
  </defs>
  <polygon class="cls-4" points="904.38 125.48 1121.72 0 1339.06 125.48 1339.06 376.43 1121.72 501.93 904.38 376.43 904.38 125.48"/>
  <polygon class="cls-1" points="944.61 148.7 1121.72 46.45 1298.83 148.7 1298.83 353.2 1121.72 455.48 944.61 353.2 944.61 148.7"/>
  <polygon class="cls-4" points="671.72 517.56 889.06 392.05 1106.4 517.56 1106.4 768.51 889.06 893.98 671.72 768.51 671.72 517.56"/>
  <polygon class="cls-1" points="711.95 540.78 889.06 438.5 1066.17 540.78 1066.17 745.28 889.06 847.53 711.95 745.28 711.95 540.78"/>
  <polygon class="cls-4" points="439.06 125.48 656.4 0 873.73 125.48 873.73 376.43 656.4 501.93 439.06 376.43 439.06 125.48"/>
  <polygon class="cls-1" points="479.29 148.7 656.4 46.45 833.5 148.7 833.5 353.2 656.4 455.48 479.29 353.2 479.29 148.7"/>
  <path class="cls-2" d="M187.7,452.78l-20.77-14.74-3.15-9.02-3.1,8.96-20.79,14.81h-55.9l-20.66-14.44-46.18-126.22L0,294.96v-42.42l22-22h91.52l10.55,10.55,10.55-10.55h76.99l10.96,10.96,10.96-10.96h71.25l22,22v42.42l-16.69,16.69-47.15,126.8-20.62,14.33h-54.61ZM502,451.14l22-22v-42.42l-18.3-18.3-23.63-64.23,9.23-9.23v-42.42l-22-22h-127.15l-22,22v42.42l9.53,9.53-23.23,63.81-18.42,18.42v42.42l22,22h69.84l14.82-14.82,14.82,14.82h92.46ZM703.21,454.07l22-22v-121.76l15.35-15.35v-42.42l-22-22h-71.37l-22,22v1.59l-9.87-14.17-18.05-9.42h-83.67l-22,22v42.42l15.59,15.59v60.59l-15.59,15.59v42.42l22,22h72.42l22-22v-11.73l18.72,27.14,18.11,9.51h58.36ZM925.4,454.07l22-22v-121.76l15.35-15.35v-42.42l-22-22h-71.37l-22,22v1.59l-9.87-14.17-18.05-9.42h-83.67l-22,22v42.42l15.59,15.59v60.59l-15.59,15.59v42.42l22,22h72.42l22-22v-11.73l18.72,27.14,18.11,9.51h58.36ZM1144.19,451.14l22-22v-42.42l-18.3-18.3-23.63-64.23,9.23-9.23v-42.42l-22-22h-127.15l-22,22v42.42l9.53,9.53-23.23,63.81-18.42,18.42v42.42l22,22h69.84l14.82-14.82,14.82,14.82h92.46ZM1279.89,451.14c29.06,0,51.57-5.43,68.8-16.61,19.75-12.8,30.19-31.85,30.19-55.08,0-15.71-5.23-29.83-15.55-41.97-1.03-1.21-2.09-2.38-3.19-3.5,8.06-9.96,12.3-22.21,12.3-35.62,0-21.94-9.38-39.93-27.12-52.04-15.35-10.47-36.1-15.78-61.68-15.78h-126.91l-22,22v42.42l15.35,15.35v61.05l-15.35,15.35v42.42l22,22h123.16ZM1547.66,451.14l22-22v-56.37l-22-22h-29.33v-19.87h29.33l22-22v-56.37l-22-22h-168.52l-22,22v42.42l13.71,13.71v64.34l-13.71,13.71v42.42l22,22h168.52ZM1742.78,451.14l22-22v-56.37l-22-22h-29.33v-19.87h29.33l22-22v-56.37l-22-22h-168.52l-22,22v42.42l13.71,13.71v64.34l-13.71,13.71v42.42l22,22h168.52ZM537.86,690.14l22-22v-42.42l-13.95-13.95v-7.29l34.27-49.37,21.16-21.16v-42.42l-22-22h-67.97l-10.08,10.08-10.08-10.08h-92.11l-22,22v42.42l22,22h.28l34.09,48.58v7l-14.18,14.18v42.42l22,22h96.56ZM757.43,678.83c18.73-9.68,33.62-23.36,44.26-40.65,10.68-17.36,16.09-37.17,16.09-58.87s-5.3-40.34-15.77-57.66c-10.43-17.28-25.15-31.07-43.73-41.01-18.27-9.77-39.17-14.73-62.11-14.73s-43.37,4.85-61.61,14.41c-18.63,9.77-33.42,23.49-43.96,40.78-10.57,17.34-15.93,36.92-15.93,58.21s5.4,40.93,16.05,58.39c10.62,17.41,25.45,31.19,44.07,40.96,18.23,9.56,38.72,14.41,60.9,14.41s43.44-4.79,61.72-14.23ZM697.27,579.31c0,9.22-.41,15.72-.91,20.23-.5-4.51-.91-11-.91-20.23s.38-15.32.87-19.78c.53,4.4.95,10.74.95,19.78ZM973.75,669.58c16.96-15.95,25.56-38.08,25.56-65.77v-56.02l13.83-13.83v-42.42l-22-22h-66.45l-8.85,8.85-8.85-8.85h-90.82l-22,22v42.42l13.71,13.71v51.56c0,29.75,8.21,53.08,24.41,69.32,16.21,16.27,40.52,24.52,72.24,24.52,29.35,0,52.63-7.9,69.21-23.49ZM1216.61,690.14l22-22v-42.42l-22-22h-.38l-7.58-12.52c2.99-3.14,5.7-6.64,8.12-10.47,6.95-11.03,10.48-23.3,10.48-36.45,0-14.16-3.88-27.37-11.53-39.27-7.94-12.35-19.82-21.56-35.31-27.38l-.19-.07c-14.76-5.39-35.78-8.02-64.27-8.02h-105.82l-22,22v42.42l14.18,14.18v63.4l-14.18,14.18v42.42l22,22h96.09l21.86-21.86,5.52,10.27,19.38,11.58h63.63ZM1354.89,682.67c12.2-6.61,21.97-15.82,29.03-27.38,7.16-11.71,10.79-24.66,10.79-38.49,0-16.37-5.08-37.51-25.39-56.64l18.48-18.48v-50.16l-22-22h-39.84l-4.62,4.62c-1.94-.85-3.92-1.63-5.95-2.33-9.02-3.15-18.72-4.74-28.81-4.74-14.25,0-27.34,3.08-38.89,9.15-12,6.31-21.54,15.3-28.35,26.72-6.76,11.35-10.19,24.3-10.19,38.51,0,18.61,6.16,34.73,18.31,47.9.84.91,1.7,1.8,2.59,2.69l-19.49,19.49v56.6l22,22h39.84l5.49-5.49c2.48,1.05,5.03,2.02,7.66,2.89,9.83,3.28,19.64,4.94,29.16,4.94,14.67,0,28.19-3.3,40.19-9.81Z"/>
  <g>
    <rect class="cls-2" x="439.06" y="252.49" width="866" height="372"/>
    <g>
      <path class="cls-3" d="M100.52,294.96l20.62,75.82h.47l26.25-75.82h-13.24v-42.42h76.99v42.42h-12.89l26.13,75.82h.47l20.86-75.82h-12.66v-42.42h71.25v42.42h-11.95l-50.51,135.82h-54.61l-23.79-68.09h-.47l-23.55,68.09h-55.9l-49.69-135.82h-12.3v-42.42h91.52v42.42h-13.01Z"/>
      <path class="cls-3" d="M455.24,294.96l33.75,91.76h13.01v42.42h-92.46v-38.91h15.47l-6.8-22.03h-45.35l-7.38,22.03h14.41v38.91h-69.84v-42.42h13.12l33.4-91.76h-14.41v-42.42h127.15v42.42h-14.06ZM411.53,346.05l-14.88-48.87h-.47l-16.29,48.87h31.64Z"/>
      <path class="cls-3" d="M662.08,344.88v-49.92h-14.88v-42.42h71.37v42.42h-15.35v137.11h-58.36l-74.18-107.58h-.47v62.23h15.82v42.42h-72.42v-42.42h15.59v-91.76h-15.59v-42.42h83.67l64.34,92.34h.47Z"/>
      <path class="cls-3" d="M884.27,344.88v-49.92h-14.88v-42.42h71.37v42.42h-15.35v137.11h-58.36l-74.18-107.58h-.47v62.23h15.82v42.42h-72.42v-42.42h15.59v-91.76h-15.59v-42.42h83.67l64.34,92.34h.47Z"/>
      <path class="cls-3" d="M1097.43,294.96l33.75,91.76h13.01v42.42h-92.46v-38.91h15.47l-6.8-22.03h-45.35l-7.38,22.03h14.41v38.91h-69.84v-42.42h13.12l33.4-91.76h-14.41v-42.42h127.15v42.42h-14.06ZM1053.72,346.05l-14.88-48.87h-.47l-16.29,48.87h31.64Z"/>
      <path class="cls-3" d="M1350.44,298.36c0,9.14-2.89,16.9-8.67,23.26-5.78,6.37-13.63,10.61-23.55,12.71v.7c12.03,3.05,21.48,8.61,28.36,16.7,6.87,8.09,10.31,17.33,10.31,27.71,0,15.7-6.72,27.91-20.16,36.62-13.44,8.71-32.38,13.07-56.84,13.07h-123.16v-42.42h15.35v-91.76h-15.35v-42.42h126.91c21.17,0,37.6,3.98,49.28,11.95,11.68,7.97,17.52,19.26,17.52,33.87ZM1280.36,307.5c0-5.47-1.76-9.53-5.27-12.19-3.52-2.66-9.14-3.98-16.88-3.98h-17.7v32.23h16.99c7.81,0,13.57-1.29,17.29-3.87,3.71-2.58,5.57-6.64,5.57-12.19ZM1282.7,373.24c0-11.87-7.66-17.81-22.97-17.81h-19.22v34.8h16.29c8.98,0,15.55-1.27,19.69-3.81,4.14-2.54,6.21-6.93,6.21-13.18Z"/>
      <path class="cls-3" d="M1501.38,308.9v-13.95h-40.08v26.95h35.04v35.98h-35.04v28.83h40.08v-13.95h46.29v56.37h-168.52v-42.42h13.71v-91.76h-13.71v-42.42h168.52v56.37h-46.29Z"/>
      <path class="cls-3" d="M1696.49,308.9v-13.95h-40.08v26.95h35.04v35.98h-35.04v28.83h40.08v-13.95h46.29v56.37h-168.52v-42.42h13.71v-91.76h-13.71v-42.42h168.52v56.37h-46.29Z"/>
      <path class="cls-3" d="M480.91,533.96l18.52,35.74,22.62-35.74h-10.66v-42.42h67.97v42.42h-11.25l-44.18,63.63v28.12h13.95v42.42h-96.56v-42.42h14.18v-28.12l-44.65-63.63h-11.72v-42.42h92.11v42.42h-10.31Z"/>
      <path class="cls-3" d="M795.79,579.31c0,17.66-4.28,33.44-12.83,47.34-8.55,13.91-20.43,24.79-35.62,32.64-15.2,7.85-32.4,11.78-51.62,11.78s-35.57-3.96-50.68-11.89c-15.12-7.93-26.95-18.91-35.51-32.93-8.55-14.02-12.83-29.67-12.83-46.93s4.24-32.85,12.71-46.76c8.48-13.91,20.27-24.82,35.39-32.75,15.12-7.93,32.25-11.89,51.39-11.89s36.62,4.04,51.74,12.13,26.87,19.08,35.27,32.99c8.4,13.91,12.6,29.34,12.6,46.29ZM696.18,629.7c5.78,0,10.35-1.56,13.71-4.69,3.36-3.12,5.76-8.32,7.21-15.59,1.44-7.27,2.17-17.3,2.17-30.12s-.8-23.05-2.4-30.23c-1.6-7.19-4.04-12.3-7.32-15.35s-7.73-4.57-13.36-4.57-9.96,1.49-13.24,4.45c-3.28,2.97-5.68,8.05-7.21,15.23-1.52,7.19-2.29,17.34-2.29,30.47s.72,22.85,2.17,30.12c1.44,7.27,3.81,12.46,7.09,15.59,3.28,3.13,7.77,4.69,13.48,4.69Z"/>
      <path class="cls-3" d="M898.33,533.96v66.21c0,10.63,1.48,18.2,4.45,22.73,2.97,4.53,7.66,6.8,14.06,6.8s10.51-2.26,13.01-6.8c2.5-4.53,3.75-12.42,3.75-23.67v-65.27h-8.91v-42.42h66.45v42.42h-13.83v69.84c0,21.49-6.21,38.07-18.63,49.75-12.42,11.68-30.47,17.52-54.14,17.52-25.78,0-44.67-6.01-56.66-18.05-11.99-12.03-17.99-29.96-17.99-53.79v-65.27h-13.71v-42.42h90.82v42.42h-8.67Z"/>
      <path class="cls-3" d="M1172.66,498.22c11.02,4.14,19.2,10.37,24.55,18.69,5.35,8.32,8.03,17.44,8.03,27.36,0,8.99-2.36,17.23-7.09,24.73-4.73,7.5-11,12.93-18.81,16.29l24.49,40.43h12.77v42.42h-63.63l-38.67-71.95h-21.56v29.53h13.48v42.42h-96.09v-42.42h14.18v-91.76h-14.18v-42.42h105.82c25.62,0,44.53,2.23,56.72,6.68ZM1133.76,547.2c0-5.16-1.84-9.26-5.51-12.3-3.67-3.05-8.63-4.57-14.88-4.57h-20.62v33.4h20.16c6.56,0,11.68-1.48,15.35-4.45,3.67-2.97,5.51-6.99,5.51-12.07Z"/>
      <path class="cls-3" d="M1325.95,502.55v-11.02h39.84v50.16h-39.84c-2.11-6.56-5.27-11.64-9.49-15.23-4.22-3.59-9.53-5.39-15.94-5.39-3.98,0-7.19.96-9.61,2.87-2.42,1.92-3.63,4.47-3.63,7.68,0,3.67,1.17,6.5,3.52,8.5s10.62,6.19,24.84,12.6l13.24,6.45c29.22,14.45,43.83,33.67,43.83,57.66,0,9.77-2.52,18.77-7.56,27.01-5.04,8.24-11.95,14.75-20.74,19.51-8.79,4.77-18.69,7.15-29.71,7.15-7.19,0-14.59-1.27-22.21-3.81s-14.32-5.96-20.1-10.25v11.72h-39.84v-56.6h39.84c2.58,7.97,6.04,13.79,10.37,17.46,4.34,3.67,9.86,5.51,16.58,5.51,4.3,0,7.73-1,10.31-2.99s3.87-4.82,3.87-8.5-1.68-6.83-5.04-9.96c-3.36-3.12-9.06-6.37-17.11-9.73l-11.95-5.27c-15.55-6.72-27.48-14.59-35.8-23.61s-12.48-20.02-12.48-32.99c0-10.23,2.36-19.32,7.09-27.25,4.73-7.93,11.29-14.1,19.69-18.52,8.4-4.41,17.95-6.62,28.65-6.62,7.66,0,14.84,1.17,21.56,3.52,6.72,2.34,12.66,5.67,17.81,9.96Z"/>
    </g>
  </g>
</svg>